<svg xmlns="http://www.w3.org/2000/svg" viewBox="0 0 24 24">
	<g fill="none" stroke="currentColor" stroke-linecap="round" stroke-linejoin="round" stroke-width="2">
		<path d="M10.22 4.9L5.4 6H5a2 2 0 0 1 0-4h.4l4.86 1" />
		<circle cx="12" cy="4" r="2" />
		<path d="m13.78 4.9l4.8 1h.4a2 2 0 0 0 0-4h-.4l-4.92 1M12 6v3m6 1h4v6h-4zm4-1v8" />
		<path d="M18 11h-2.6a3.87 3.87 0 0 0-6.8 0H7c-2.8 0-5 2.2-5 5v1h4v-1c0-.6.4-1 1-1h1.6a3.87 3.87 0 0 0 6.8 0H18" />
		<path d="M3.5 17S2 19 2 20a2 2 0 0 0 4 0c0-1-1.5-3-1.5-3" />
	</g>
</svg>
